<?xml version="1.0" encoding="utf-8"?>
<!-- Generator: Adobe Illustrator 16.0.0, SVG Export Plug-In . SVG Version: 6.00 Build 0)  -->
<!DOCTYPE svg PUBLIC "-//W3C//DTD SVG 1.1//EN" "http://www.w3.org/Graphics/SVG/1.1/DTD/svg11.dtd">
<svg version="1.1" id="Layer_1" xmlns="http://www.w3.org/2000/svg" xmlns:xlink="http://www.w3.org/1999/xlink" x="0px" y="0px"
	 width="1080px" height="221.1px" viewBox="0 0 1080 221.1" enable-background="new 0 0 1080 221.1" xml:space="preserve">
<g>
	<path fill="#2080AB" d="M255.624,45.386h48.979c5.433,0,10.427,0.707,14.981,2.118c4.554,1.412,8.496,3.49,11.825,6.232
		c3.328,2.744,5.913,6.166,7.75,10.267c1.838,4.103,2.757,8.817,2.757,14.143c0,4.421-0.907,8.589-2.717,12.504
		c-1.811,3.915-4.367,7.338-7.669,10.267c-3.304,2.93-7.259,5.247-11.865,6.951c-4.608,1.706-9.736,2.557-15.381,2.557h-21.493
		v42.347h12.145v13.742h-39.311v-13.742h11.506V59.208h-11.506V45.386z M282.789,59.208V97.32h21.813
		c3.036,0,5.818-0.412,8.349-1.238c2.529-0.826,4.714-2.038,6.552-3.636c1.837-1.598,3.276-3.596,4.314-5.993
		c1.039-2.396,1.558-5.166,1.558-8.309c0-5.965-1.812-10.613-5.433-13.943c-3.623-3.328-9.402-4.994-17.339-4.994H282.789z"/>
	<path fill="#2080AB" d="M396.407,158.844c-3.144,2.93-6.619,5.326-10.427,7.19c-3.809,1.863-8.138,2.796-12.984,2.796
		c-4.049,0-7.764-0.638-11.146-1.917c-3.383-1.278-6.299-3.022-8.749-5.233c-2.451-2.209-4.354-4.78-5.712-7.711
		c-1.359-2.929-2.038-6.045-2.038-9.348c0-3.516,0.52-6.632,1.558-9.349c1.039-2.716,2.423-5.072,4.155-7.07
		c1.73-1.999,3.755-3.675,6.073-5.034c2.317-1.357,4.74-2.449,7.271-3.276c2.529-0.825,5.114-1.411,7.75-1.758
		c2.636-0.345,5.153-0.52,7.55-0.52c3.835,0,7.058,0.12,9.667,0.36s4.98,0.573,7.111,0.999l0.08-6.792
		c0-2.929-0.427-5.473-1.279-7.63s-2.051-3.941-3.595-5.353c-1.545-1.411-3.396-2.463-5.553-3.156
		c-2.157-0.692-4.568-1.039-7.23-1.039c-2.504,0-4.901,0.173-7.191,0.519c-2.291,0.347-4.435,0.799-6.432,1.358
		c-1.997,0.559-3.835,1.198-5.513,1.918c-1.678,0.719-3.104,1.478-4.275,2.277l-4.874-10.307c1.97-1.278,4.127-2.463,6.472-3.556
		c2.343-1.091,4.806-2.023,7.391-2.796c2.583-0.772,5.22-1.385,7.91-1.838c2.69-0.452,5.34-0.679,7.95-0.679
		c4.794,0,9.109,0.573,12.944,1.718c3.835,1.146,7.084,2.917,9.748,5.313c2.663,2.397,4.714,5.447,6.152,9.148
		c1.438,3.703,2.157,8.137,2.157,13.303l-0.08,41.389h9.189v13.742h-24.05V158.844z M376.272,156.366
		c1.97,0,3.941-0.239,5.912-0.719c1.97-0.479,3.835-1.131,5.594-1.957c1.757-0.825,3.382-1.784,4.874-2.876
		c1.491-1.093,2.743-2.224,3.755-3.397l0.08-18.696h-17.258c-2.876,0-5.5,0.32-7.87,0.96c-2.372,0.639-4.422,1.571-6.152,2.797
		c-1.731,1.225-3.076,2.743-4.035,4.554s-1.438,3.889-1.438,6.23c0,2.186,0.4,4.091,1.199,5.714c0.799,1.626,1.93,2.983,3.396,4.075
		c1.464,1.093,3.208,1.917,5.233,2.478C371.584,156.087,373.821,156.366,376.272,156.366z"/>
	<path fill="#2080AB" d="M433.959,83.738h26.367v6.871c3.516-2.717,7.351-4.874,11.506-6.472c4.154-1.598,8.442-2.397,12.863-2.397
		c5.434,0,10.414,1.013,14.942,3.037c4.526,2.025,8.429,4.874,11.705,8.549c3.276,3.675,5.819,8.083,7.631,13.224
		c1.811,5.141,2.717,10.826,2.717,17.058c0,6.659-1.013,12.731-3.037,18.216c-2.025,5.488-4.834,10.189-8.429,14.104
		s-7.87,6.965-12.824,9.147c-4.954,2.185-10.387,3.275-16.3,3.275c-4.208,0-7.949-0.438-11.225-1.316
		c-3.276-0.88-6.405-2.011-9.388-3.396v26.766h12.943v13.743h-39.311v-13.743h11.346V97.48h-11.505V83.738z M480.781,94.844
		c-3.836,0-7.525,0.772-11.067,2.317c-3.542,1.545-6.619,3.675-9.228,6.392v44.824c1.758,1.812,4.274,3.436,7.551,4.874
		c3.276,1.438,7.363,2.156,12.264,2.156c3.408,0,6.684-0.664,9.828-1.997c3.143-1.331,5.912-3.316,8.31-5.952
		c2.396-2.637,4.314-5.898,5.752-9.788c1.438-3.888,2.157-8.389,2.157-13.504c0-4.686-0.68-8.84-2.037-12.463
		c-1.358-3.622-3.196-6.685-5.514-9.188c-2.316-2.503-5.021-4.407-8.11-5.713C487.598,95.497,484.295,94.844,480.781,94.844z"/>
	<path fill="#2080AB" d="M585.688,158.844c-3.144,2.93-6.619,5.326-10.428,7.19c-3.809,1.863-8.136,2.796-12.982,2.796
		c-4.049,0-7.765-0.638-11.146-1.917c-3.384-1.278-6.3-3.022-8.75-5.233c-2.449-2.209-4.354-4.78-5.711-7.711
		c-1.359-2.929-2.038-6.045-2.038-9.348c0-3.516,0.52-6.632,1.557-9.349c1.039-2.716,2.423-5.072,4.155-7.07
		c1.73-1.999,3.755-3.675,6.073-5.034c2.316-1.357,4.739-2.449,7.271-3.276c2.529-0.825,5.112-1.411,7.75-1.758
		c2.638-0.345,5.154-0.52,7.551-0.52c3.835,0,7.058,0.12,9.668,0.36c2.608,0.24,4.979,0.573,7.111,0.999l0.079-6.792
		c0-2.929-0.427-5.473-1.278-7.63s-2.051-3.941-3.595-5.353c-1.546-1.411-3.396-2.463-5.553-3.156
		c-2.157-0.692-4.568-1.039-7.231-1.039c-2.504,0-4.901,0.173-7.191,0.519c-2.291,0.347-4.435,0.799-6.432,1.358
		c-1.997,0.559-3.836,1.198-5.513,1.918c-1.678,0.719-3.104,1.478-4.275,2.277l-4.874-10.307c1.97-1.278,4.127-2.463,6.473-3.556
		c2.343-1.091,4.807-2.023,7.39-2.796c2.584-0.772,5.221-1.385,7.911-1.838c2.688-0.452,5.339-0.679,7.95-0.679
		c4.793,0,9.107,0.573,12.943,1.718c3.836,1.146,7.083,2.917,9.748,5.313c2.663,2.397,4.713,5.447,6.151,9.148
		c1.438,3.703,2.157,8.137,2.157,13.303l-0.079,41.389h9.188v13.742h-24.05V158.844z M565.554,156.366
		c1.97,0,3.941-0.239,5.912-0.719c1.97-0.479,3.836-1.131,5.594-1.957c1.758-0.825,3.381-1.784,4.873-2.876
		c1.49-1.093,2.742-2.224,3.756-3.397l0.08-18.696h-17.258c-2.878,0-5.501,0.32-7.87,0.96c-2.371,0.639-4.423,1.571-6.153,2.797
		c-1.731,1.225-3.076,2.743-4.034,4.554c-0.96,1.811-1.438,3.889-1.438,6.23c0,2.186,0.399,4.091,1.198,5.714
		c0.799,1.626,1.93,2.983,3.396,4.075c1.463,1.093,3.208,1.917,5.232,2.478C560.865,156.087,563.103,156.366,565.554,156.366z"/>
	<path fill="#2080AB" d="M665.748,45.386h48.978c5.434,0,10.427,0.707,14.981,2.118c4.554,1.412,8.495,3.49,11.824,6.232
		c3.329,2.744,5.913,6.166,7.751,10.267c1.837,4.103,2.757,8.817,2.757,14.143c0,4.421-0.907,8.589-2.716,12.504
		c-1.812,3.915-4.369,7.338-7.672,10.267c-3.302,2.93-7.258,5.247-11.864,6.951c-4.608,1.706-9.734,2.557-15.382,2.557h-21.491
		v42.347h12.144v13.742h-39.31v-13.742h11.506V59.208h-11.506V45.386z M692.914,59.208V97.32h21.812
		c3.037,0,5.819-0.412,8.351-1.238c2.529-0.826,4.713-2.038,6.551-3.636c1.838-1.598,3.276-3.596,4.315-5.993
		c1.038-2.396,1.558-5.166,1.558-8.309c0-5.965-1.812-10.613-5.434-13.943c-3.623-3.328-9.401-4.994-17.337-4.994H692.914z"/>
	<path fill="#2080AB" d="M806.531,158.844c-3.144,2.93-6.619,5.326-10.427,7.19c-3.81,1.863-8.138,2.796-12.983,2.796
		c-4.049,0-7.765-0.638-11.146-1.917c-3.383-1.278-6.3-3.022-8.75-5.233c-2.449-2.209-4.353-4.78-5.711-7.711
		c-1.358-2.929-2.038-6.045-2.038-9.348c0-3.516,0.52-6.632,1.558-9.349c1.038-2.716,2.423-5.072,4.155-7.07
		c1.729-1.999,3.755-3.675,6.073-5.034c2.315-1.357,4.739-2.449,7.27-3.276c2.53-0.825,5.113-1.411,7.75-1.758
		c2.638-0.345,5.154-0.52,7.551-0.52c3.835,0,7.058,0.12,9.668,0.36c2.609,0.24,4.98,0.573,7.111,0.999l0.079-6.792
		c0-2.929-0.427-5.473-1.277-7.63c-0.853-2.157-2.052-3.941-3.596-5.353c-1.546-1.411-3.396-2.463-5.553-3.156
		c-2.157-0.692-4.568-1.039-7.231-1.039c-2.504,0-4.901,0.173-7.19,0.519c-2.291,0.347-4.436,0.799-6.432,1.358
		c-1.998,0.559-3.836,1.198-5.514,1.918c-1.678,0.719-3.104,1.478-4.275,2.277l-4.874-10.307c1.97-1.278,4.128-2.463,6.473-3.556
		c2.343-1.091,4.807-2.023,7.39-2.796c2.584-0.772,5.221-1.385,7.911-1.838c2.688-0.452,5.339-0.679,7.95-0.679
		c4.794,0,9.107,0.573,12.943,1.718c3.836,1.146,7.084,2.917,9.748,5.313c2.663,2.397,4.713,5.447,6.151,9.148
		c1.438,3.703,2.157,8.137,2.157,13.303l-0.079,41.389h9.188v13.742h-24.05V158.844z M786.396,156.366
		c1.97,0,3.941-0.239,5.912-0.719c1.97-0.479,3.836-1.131,5.594-1.957c1.758-0.825,3.382-1.784,4.873-2.876
		c1.491-1.093,2.743-2.224,3.756-3.397l0.08-18.696h-17.259c-2.876,0-5.5,0.32-7.869,0.96c-2.371,0.639-4.422,1.571-6.153,2.797
		c-1.731,1.225-3.076,2.743-4.035,4.554c-0.958,1.811-1.438,3.889-1.438,6.23c0,2.186,0.4,4.091,1.198,5.714
		c0.799,1.626,1.93,2.983,3.396,4.075c1.465,1.093,3.209,1.917,5.233,2.478C781.709,156.087,783.945,156.366,786.396,156.366z"/>
	<path fill="#2080AB" d="M906.885,101.235h-15.181v-5.113c-1.758,0-3.557,0.333-5.394,0.999c-1.838,0.667-3.556,1.679-5.153,3.036
		c-1.598,1.359-2.995,3.09-4.195,5.194c-1.197,2.105-2.064,4.594-2.596,7.471v39.95h14.062v13.742h-41.068v-13.742h11.426
		l0.08-55.291h-11.506V83.738h26.447v11.425c0.959-1.704,2.037-3.288,3.235-4.753c1.199-1.465,2.53-2.743,3.996-3.835
		c1.464-1.091,3.088-1.945,4.873-2.558c1.783-0.611,3.716-0.918,5.793-0.918c2.769,0,5.38,0,7.83,0c2.449,0,4.9,0.054,7.351,0.16
		V101.235z"/>
	<path fill="#2080AB" d="M970.285,100.237c-1.039-1.571-2.385-2.849-4.035-3.835c-1.652-0.985-3.49-1.704-5.515-2.157
		c-2.024-0.452-3.994-0.679-5.911-0.679c-2.132,0-4.089,0.239-5.873,0.719c-1.785,0.479-3.316,1.172-4.594,2.077
		c-1.279,0.906-2.277,2.012-2.996,3.316c-0.719,1.305-1.08,2.756-1.08,4.354c0,2.771,0.84,4.967,2.518,6.592
		c1.678,1.626,4.486,3.13,8.43,4.514l15.9,5.594c6.817,2.29,11.797,5.407,14.94,9.349c3.143,3.942,4.715,8.656,4.715,14.142
		c0,3.676-0.732,7.046-2.198,10.107c-1.465,3.063-3.543,5.673-6.231,7.83c-2.69,2.157-5.927,3.836-9.708,5.033
		c-3.783,1.199-7.99,1.798-12.624,1.798c-6.445,0-11.693-1.039-15.741-3.116c-4.049-2.077-7.164-4.819-9.349-8.229h-8.309v-13.743
		h16.539c0,2.291,0.492,4.249,1.479,5.874c0.984,1.625,2.288,2.943,3.914,3.954c1.625,1.014,3.462,1.758,5.513,2.237
		s4.141,0.72,6.272,0.72c2.078,0,4.075-0.252,5.993-0.759c1.916-0.506,3.607-1.252,5.073-2.237c1.465-0.985,2.623-2.169,3.476-3.556
		c0.852-1.385,1.278-2.957,1.278-4.714c0-2.664-0.866-4.928-2.597-6.792c-1.731-1.864-4.675-3.542-8.83-5.033l-15.819-5.913
		c-6.444-2.289-11.225-5.206-14.342-8.748c-3.116-3.543-4.675-7.977-4.675-13.304c0-3.517,0.652-6.765,1.958-9.749
		c1.305-2.982,3.195-5.553,5.673-7.71c2.477-2.157,5.499-3.848,9.069-5.073c3.567-1.225,7.643-1.837,12.225-1.837
		c5.911,0,10.865,0.827,14.86,2.477c3.996,1.651,7.591,4.474,10.787,8.469h7.751v13.743h-16.381
		C971.842,103.713,971.322,101.809,970.285,100.237z"/>
	<path fill="#2080AB" d="M1017.466,127.043c0,2.345,0.172,4.489,0.52,6.433c0.347,1.944,0.839,3.795,1.479,5.553
		c1.97,5.326,5.125,9.336,9.468,12.024c4.34,2.69,9.255,4.035,14.741,4.035c4.314,0,8.511-0.599,12.584-1.797
		c4.075-1.199,8.35-3.077,12.824-5.634l5.992,10.147c-5.433,3.729-10.894,6.499-16.38,8.31s-11.185,2.716-17.097,2.716
		c-5.594,0-10.774-0.933-15.541-2.796c-4.769-1.864-8.869-4.635-12.305-8.31c-3.437-3.675-6.126-8.256-8.07-13.742
		c-1.944-5.485-2.917-11.879-2.917-19.177c0-5.912,0.826-11.492,2.478-16.739c1.65-5.246,4.114-9.827,7.391-13.742
		s7.338-7.018,12.186-9.309c4.846-2.29,10.492-3.436,16.938-3.436c6.232,0,11.439,0.946,15.621,2.837
		c4.181,1.891,7.59,4.394,10.228,7.51c2.637,3.116,4.635,6.672,5.992,10.667c1.357,3.995,2.303,8.07,2.837,12.224
		c0.265,2.024,0.438,4.075,0.519,6.153c0.08,2.077,0.12,4.101,0.12,6.071H1017.466z M1040.717,94.044
		c-3.463,0-6.485,0.493-9.069,1.479c-2.583,0.986-4.781,2.397-6.59,4.235c-1.812,1.838-3.266,4.088-4.355,6.752
		c-1.093,2.664-1.905,5.646-2.438,8.947h42.906c-0.213-3.088-0.707-5.938-1.478-8.548c-0.773-2.609-1.957-4.874-3.557-6.792
		c-1.597-1.918-3.648-3.408-6.151-4.474C1047.481,94.578,1044.392,94.044,1040.717,94.044z"/>
</g>
<g>
	<polygon fill="#DC1431" points="103.416,1.685 103.416,1.685 103.416,1.685 1.85,37.903 17.341,172.196 103.416,219.87 
		103.416,219.87 103.416,219.87 189.489,172.196 204.98,37.903 	"/>
	<polygon fill="#C30E2F" points="103.416,1.685 103.416,25.903 103.416,25.794 103.416,136.305 103.416,136.305 103.416,219.87 
		103.416,219.87 189.489,172.196 204.98,37.903 	"/>
	<path fill="#FFFFFF" d="M103.416,25.794L39.923,168.16l0,0h23.673l0,0l12.764-31.855h53.892l12.764,31.855l0,0h23.673l0,0
		L103.416,25.794L103.416,25.794L103.416,25.794L103.416,25.794L103.416,25.794z M121.961,116.669H84.87l18.546-44.619
		L121.961,116.669z"/>
</g>
</svg>
